<?xml version="1.0" standalone="no"?>
<!DOCTYPE svg PUBLIC "-//W3C//DTD SVG 20010904//EN"
 "http://www.w3.org/TR/2001/REC-SVG-20010904/DTD/svg10.dtd">
<svg version="1.0" xmlns="http://www.w3.org/2000/svg"
 width="1600.000000pt" height="1600.000000pt" viewBox="0 0 1600.000000 1600.000000"
 preserveAspectRatio="xMidYMid meet">

<g transform="translate(0.000000,1600.000000) scale(0.100000,-0.100000)"
fill="#000000" stroke="none">
<path d="M0 8000 l0 -8000 8000 0 8000 0 0 8000 0 8000 -8000 0 -8000 0 0
-8000z m11627 1794 c72 -37 143 -122 168 -201 37 -118 -1 -251 -96 -337 -65
-58 -131 -81 -234 -80 -67 0 -89 5 -137 28 -120 60 -180 149 -186 276 -4 91
20 165 74 228 100 117 278 154 411 86z m-906 -180 c71 -21 125 -72 144 -138
13 -42 15 -189 15 -966 0 -1061 7 -986 -93 -1085 -145 -143 -389 -217 -722
-218 -188 0 -299 17 -439 67 -295 105 -497 363 -537 686 -16 135 -6 364 21
460 30 106 98 245 155 315 56 69 132 142 158 151 9 3 17 9 17 14 0 14 182 98
260 120 142 39 433 45 523 11 16 -6 32 -11 37 -11 6 0 11 123 12 293 l3 292
65 11 c102 18 316 17 381 -2z m-7639 -64 l148 0 0 -251 c0 -163 -4 -258 -11
-272 -16 -31 -641 -657 -656 -657 -10 0 -13 106 -13 503 0 470 2 505 19 542
50 107 137 148 290 139 41 -2 141 -4 223 -4z m1448 -1180 l0 -1160 -228 0
c-258 0 -295 7 -356 66 -65 63 -66 77 -66 633 l0 496 -588 -588 c-387 -387
-594 -587 -608 -587 -26 0 -339 301 -365 351 -23 46 -25 125 -4 177 11 26 178
198 555 572 l540 535 0 333 0 332 560 0 560 0 0 -1160z m1790 1115 c291 -38
501 -145 630 -320 80 -108 117 -221 127 -385 15 -260 -82 -467 -292 -623 -44
-33 -80 -63 -80 -68 0 -4 54 -79 120 -165 317 -413 320 -418 311 -468 -9 -46
-62 -123 -107 -156 -107 -77 -286 -91 -413 -32 -107 50 -127 77 -406 532 -45
74 -89 143 -98 153 -12 13 -31 17 -88 17 -40 0 -79 -3 -88 -6 -14 -5 -16 -46
-16 -349 0 -319 -1 -344 -17 -349 -53 -14 -231 -28 -318 -24 -158 6 -241 55
-276 163 -10 31 -14 235 -17 955 l-3 915 32 49 c26 38 46 55 94 77 169 80 621
121 905 84z m1995 -450 c184 -39 336 -131 440 -265 111 -144 172 -357 134
-471 -15 -43 -63 -95 -110 -119 -47 -24 -180 -74 -504 -190 -143 -51 -297
-106 -342 -123 l-83 -30 18 -29 c23 -40 105 -93 176 -113 95 -28 273 -17 396
23 114 38 228 95 304 152 l56 42 44 -26 c98 -58 153 -192 126 -308 -11 -45
-23 -63 -79 -118 -36 -36 -82 -73 -101 -82 -19 -9 -63 -30 -98 -47 -230 -111
-573 -151 -817 -96 -332 75 -559 307 -657 671 -30 111 -32 130 -32 279 0 148
2 166 28 245 57 172 122 278 232 379 119 108 272 185 444 222 108 23 326 25
425 4z m4111 -32 c41 -21 116 -105 236 -263 116 -152 171 -220 179 -220 7 0
61 72 304 404 l80 108 85 -5 c90 -6 188 -34 242 -70 18 -12 46 -42 62 -65 26
-36 31 -55 34 -115 3 -64 1 -78 -26 -129 -44 -83 -124 -187 -271 -353 -72 -81
-131 -154 -131 -162 0 -19 10 -32 211 -293 91 -119 184 -243 208 -276 42 -60
42 -61 31 -105 -27 -99 -80 -168 -158 -206 -50 -24 -69 -27 -157 -28 -175 0
-220 35 -450 361 -58 82 -110 150 -114 152 -5 2 -21 -14 -36 -35 -35 -50 -233
-331 -289 -409 -43 -61 -45 -62 -98 -66 -141 -11 -288 35 -344 107 -58 76 -70
180 -29 261 24 49 175 239 343 434 50 58 91 112 92 120 0 8 -52 76 -116 150
-210 244 -354 418 -354 426 0 5 12 39 26 76 40 105 124 190 213 215 64 18 179
11 227 -14z m-791 -17 c50 -21 81 -50 108 -101 22 -40 22 -40 22 -835 l0 -795
-105 -13 c-146 -18 -306 -11 -362 17 -58 28 -92 65 -115 126 -17 47 -18 100
-21 822 l-3 772 23 6 c126 29 386 29 453 1z m-6627 -1328 c161 -40 202 -277
63 -372 -100 -68 -222 -49 -287 45 -26 38 -29 50 -29 124 0 70 3 87 24 117 37
54 106 94 164 97 10 1 39 -4 65 -11z m487 -769 c-3 -55 -5 -99 -2 -99 3 0 18
7 33 15 35 18 55 19 88 3 32 -14 34 -21 38 -138 3 -89 2 -95 -17 -95 -18 0
-20 8 -23 93 -3 85 -5 93 -27 108 -18 12 -28 13 -44 4 -33 -17 -41 -43 -41
-129 0 -74 -2 -81 -20 -81 -19 0 -20 7 -20 188 0 103 -3 197 -6 209 -4 15 -1
22 13 25 10 3 22 2 27 0 4 -3 5 -49 1 -103z m1156 -1 l-3 -107 38 20 c70 35
122 19 155 -48 26 -54 19 -112 -21 -156 -24 -27 -34 -31 -78 -31 -28 0 -57 6
-65 13 -10 8 -17 9 -22 1 -3 -5 -15 -10 -26 -10 -18 0 -19 9 -19 208 0 115 3
212 7 216 4 4 14 5 22 4 12 -3 14 -22 12 -110z m1239 -101 l0 -213 -89 -2
c-88 -2 -90 -2 -114 28 -35 41 -42 96 -21 149 26 65 91 89 154 56 l30 -16 0
99 c0 100 3 112 27 112 10 0 13 -42 13 -213z m1868 105 c1 -56 4 -102 6 -102
2 0 17 7 35 16 25 13 37 13 66 4 19 -6 40 -20 45 -30 6 -10 10 -62 10 -114 0
-89 -1 -96 -20 -96 -18 0 -20 7 -20 83 0 92 -15 127 -55 127 -44 0 -65 -43
-65 -131 0 -72 -2 -79 -20 -79 -19 0 -20 7 -20 208 0 115 3 212 7 216 20 19
28 -8 31 -102z m782 89 c0 -14 -8 -21 -27 -23 -27 -3 -28 -5 -31 -75 l-3 -73
31 0 c39 0 41 -27 3 -32 l-28 -3 -3 -102 c-3 -102 -3 -103 -27 -103 -25 0 -25
0 -25 104 0 75 -4 106 -12 109 -10 3 -10 7 -2 18 6 8 14 47 17 88 4 62 9 78
27 93 31 25 80 24 80 -1z m-5351 -154 c30 -78 57 -145 61 -149 3 -4 18 27 34
70 74 205 77 212 97 212 10 0 19 -3 19 -7 0 -33 -142 -396 -150 -386 -6 7 -53
122 -112 273 -9 23 -13 17 -45 -65 -19 -49 -44 -118 -56 -153 -12 -34 -25 -61
-30 -59 -10 3 -25 42 -126 315 l-30 82 23 0 c26 0 22 7 84 -165 22 -60 44
-111 49 -112 4 -2 14 16 21 39 22 71 94 248 101 248 3 0 30 -64 60 -143z
m4161 28 c0 -38 3 -45 20 -45 11 0 20 -7 20 -15 0 -8 -9 -15 -20 -15 -19 0
-20 -7 -20 -105 0 -98 -1 -105 -20 -105 -22 0 -22 3 -20 128 1 57 -2 73 -14
78 -20 8 -21 30 -1 38 10 3 15 19 15 46 0 33 3 40 20 40 17 0 20 -7 20 -45z
m288 -3 c3 -34 7 -42 23 -42 10 0 19 -7 19 -15 0 -8 -9 -15 -20 -15 -18 0 -20
-8 -22 -102 -3 -95 -4 -103 -23 -103 -18 0 -20 8 -23 90 -1 50 -8 101 -15 114
-9 19 -9 25 1 28 7 3 12 21 12 42 0 42 7 53 30 49 10 -2 16 -17 18 -46z m1250
1 c3 -35 7 -43 23 -43 10 0 19 -7 19 -15 0 -8 -9 -15 -20 -15 -18 0 -20 -8
-22 -102 -3 -98 -4 -103 -25 -106 -23 -3 -23 -2 -23 102 0 64 -4 106 -10 106
-5 0 -10 7 -10 15 0 8 5 15 10 15 6 0 10 21 10 46 0 41 2 45 23 42 18 -2 23
-10 25 -45z m-5005 -47 c22 -9 39 -26 51 -54 30 -66 22 -72 -90 -72 -84 0 -95
-2 -90 -16 3 -9 6 -19 6 -23 0 -11 56 -41 77 -41 11 0 34 11 53 25 40 30 50
31 50 7 0 -47 -95 -83 -154 -58 -64 27 -94 112 -61 176 33 64 91 85 158 56z
m249 8 c3 -3 4 -14 1 -24 -4 -15 -11 -18 -28 -14 -39 10 -55 -27 -55 -123 0
-76 -2 -83 -20 -83 -18 0 -20 7 -20 83 0 45 -3 99 -6 120 -6 32 -4 37 13 37
10 0 24 -5 29 -10 8 -8 15 -6 24 5 12 15 51 21 62 9z m210 -14 c30 -23 62 -86
54 -106 -4 -11 -27 -14 -101 -14 -105 0 -114 -7 -70 -54 30 -33 62 -33 110 0
45 30 65 20 35 -19 -48 -61 -150 -57 -189 7 -39 63 -21 159 37 190 39 22 95
20 124 -4z m703 0 c0 -8 -14 -17 -34 -21 -43 -9 -50 -22 -52 -89 -2 -114 -3
-115 -26 -118 -23 -3 -23 -2 -23 117 l0 121 25 0 c14 0 25 -5 25 -12 0 -8 7
-6 18 5 20 21 67 19 67 -3z m195 3 c17 -12 25 -13 28 -5 2 7 12 12 23 12 18 0
19 -8 19 -120 0 -112 -1 -120 -19 -120 -11 0 -21 5 -23 11 -3 8 -14 7 -35 -5
-40 -20 -56 -20 -97 -1 -84 40 -90 185 -8 229 36 20 82 20 112 -1z m325 -8
c23 -22 25 -31 25 -125 0 -93 -1 -100 -20 -100 -18 0 -20 7 -20 87 0 93 -13
123 -53 123 -45 0 -57 -27 -57 -122 0 -87 0 -88 -25 -88 l-25 0 0 120 0 120
25 0 c14 0 25 -5 25 -11 0 -5 10 -3 22 5 33 23 75 20 103 -9z m526 4 c16 -16
18 -23 9 -35 -11 -12 -16 -11 -41 3 -27 16 -30 16 -45 1 -19 -19 -11 -28 56
-61 47 -23 58 -45 46 -93 -8 -31 -60 -58 -95 -49 -31 8 -61 33 -61 52 0 18 28
17 47 -3 19 -19 53 -15 67 9 12 20 9 24 -64 70 -37 24 -46 44 -36 81 11 44 82
60 117 25z m287 9 c9 -9 18 -9 37 0 37 17 62 15 84 -7 18 -18 19 -18 42 0 32
25 80 24 107 -1 20 -19 22 -31 22 -125 0 -98 -1 -105 -20 -105 -19 0 -20 7
-20 94 0 101 -9 120 -52 114 -33 -5 -48 -43 -48 -130 0 -71 -2 -78 -20 -78
-19 0 -20 7 -20 89 0 95 -11 121 -50 121 -36 0 -50 -27 -50 -98 0 -86 -8 -112
-31 -112 -18 0 -19 9 -19 118 0 132 6 152 38 120z m547 -18 c27 -25 50 -84 40
-100 -3 -6 -46 -10 -96 -10 -81 0 -89 -2 -89 -19 0 -24 45 -61 74 -61 12 0 37
11 56 25 51 37 70 14 25 -30 -20 -21 -34 -25 -84 -25 -54 0 -62 3 -85 30 -50
60 -43 146 17 196 26 22 38 25 75 21 26 -3 53 -14 67 -27z m247 19 c28 -12 65
-65 70 -99 l3 -25 -97 -3 c-109 -3 -119 -12 -73 -57 29 -30 59 -31 103 -5 39
24 52 25 52 6 0 -29 -50 -56 -104 -56 -73 0 -116 41 -116 111 0 104 79 166
162 128z m1010 -28 c19 -22 28 -42 28 -66 l0 -35 -95 0 c-106 0 -117 -9 -70
-55 31 -32 63 -32 110 1 50 34 70 17 28 -24 -57 -58 -153 -49 -188 18 -19 37
-19 103 0 140 35 68 135 79 187 21z m1092 23 c15 -14 17 -14 32 1 22 22 59 16
59 -10 0 -16 -6 -19 -27 -17 -43 5 -58 -28 -58 -125 0 -76 -2 -83 -20 -83 -19
0 -20 7 -20 118 0 102 4 132 16 132 1 0 10 -7 18 -16z m290 2 c25 -11 38 -25
51 -59 9 -25 14 -50 10 -56 -4 -7 -44 -11 -101 -11 -105 0 -116 -9 -69 -55 31
-32 75 -32 112 -1 35 30 63 22 42 -12 -20 -31 -57 -47 -107 -46 -39 1 -50 6
-79 37 -25 28 -33 45 -33 75 0 112 77 169 174 128z m-954 -85 c0 -68 4 -93 16
-105 19 -19 67 -21 82 -3 6 7 12 53 14 102 3 75 6 90 20 93 23 4 32 -49 23
-134 -8 -75 -25 -99 -79 -109 -42 -8 -86 11 -103 45 -7 14 -13 62 -13 113 0
80 2 87 20 87 19 0 20 -7 20 -89z m400 6 c0 -92 15 -127 55 -127 44 0 55 23
55 121 0 82 1 89 20 89 19 0 20 -7 20 -90 0 -49 -5 -100 -11 -114 -25 -53
-119 -59 -159 -9 -17 22 -20 40 -20 119 0 87 1 94 20 94 18 0 20 -7 20 -83z"/>
<path d="M11370 9521 c0 -94 3 -171 8 -171 18 0 257 158 260 172 2 11 -34 39
-113 88 -64 40 -125 75 -136 77 -18 5 -19 -2 -19 -166z"/>
<path d="M9994 8580 c-166 -35 -272 -170 -297 -375 -27 -238 48 -418 206 -491
55 -26 73 -29 162 -29 87 1 107 4 150 26 l50 25 3 403 2 402 -46 20 c-52 23
-167 33 -230 19z"/>
<path d="M5960 8992 l-45 -7 0 -270 0 -270 160 0 c154 0 162 1 220 28 76 36
93 51 121 112 32 68 34 185 3 250 -48 102 -150 154 -314 160 -55 2 -120 0
-145 -3z"/>
<path d="M7965 8597 c-93 -31 -159 -86 -200 -167 -27 -53 -49 -178 -34 -194 7
-8 552 186 572 204 22 20 -52 109 -118 143 -50 25 -163 32 -220 14z"/>
<path d="M6686 6764 c-45 -44 -44 -108 1 -144 56 -44 123 -6 123 70 0 72 -79
119 -124 74z"/>
<path d="M7721 6754 c-27 -34 -29 -104 -3 -127 31 -29 74 -31 105 -7 22 17 27
30 27 64 0 58 -29 96 -75 96 -24 0 -39 -7 -54 -26z"/>
<path d="M5783 6761 c-13 -11 -23 -24 -23 -29 0 -10 137 -22 146 -13 2 3 -8
17 -23 33 -31 33 -68 36 -100 9z"/>
<path d="M6222 6753 l-27 -28 37 -3 c21 -2 57 -2 80 0 l43 3 -27 28 c-16 15
-38 27 -53 27 -15 0 -37 -12 -53 -27z"/>
<path d="M7140 6756 c-34 -38 -33 -101 3 -132 34 -29 66 -31 101 -3 22 17 26
28 26 69 0 41 -4 52 -26 69 -36 28 -75 27 -104 -3z"/>
<path d="M8800 6760 c-31 -31 -25 -38 38 -42 77 -6 89 1 62 35 -26 33 -71 36
-100 7z"/>
<path d="M9070 6753 l-22 -28 36 -3 c19 -2 55 -2 78 0 l43 3 -27 28 c-18 17
-38 27 -57 27 -20 0 -36 -9 -51 -27z"/>
<path d="M10042 6753 l-27 -28 37 -3 c21 -2 56 -2 79 0 l41 3 -22 28 c-15 18
-31 27 -51 27 -19 0 -39 -10 -57 -27z"/>
<path d="M11462 6761 c-34 -29 -26 -39 36 -43 77 -6 89 1 62 35 -26 32 -67 36
-98 8z"/>
</g>
</svg>
